<svg width="362.73401" height="411.99998" xmlns="http://www.w3.org/2000/svg">

 <metadata id="metadata3481">image/svg+xml</metadata>
 <g>
  <title>background</title>
  <rect fill="none" id="canvas_background" height="413.99998" width="364.73401" y="-1" x="-1"/>
 </g>
 <g>
  <title>Layer 1</title>
  <g id="layer1">
   <g id="g3013">
    <polygon fill="#264de4" points="362.7340087890625,0.6198482513427734 329.6880187988281,370.81874561309814 181.14500427246094,411.9997453689575 33.01100158691406,370.87675952911377 0.000007629395440744702,0.6198482513427734 " id="polygon2989"/>
    <polygon fill="#2965f1" points="301.3970031738281,347.24574756622314 329.6369934082031,30.893826484680176 181.36700439453125,30.893826484680176 181.36700439453125,380.52275562286377 " id="polygon2991"/>
    <polygon fill="#ebebeb" points="75.677001953125,168.21689319610596 79.74700927734375,213.62683582305908 181.36700439453125,213.62683582305908 181.36700439453125,168.21689319610596 " id="polygon2993"/>
    <polygon fill="#ebebeb" points="181.36700439453125,76.30483341217041 181.2100067138672,76.30483341217041 67.49900817871094,76.30483341217041 71.62699890136719,121.71587085723877 181.36700439453125,121.71587085723877 " id="polygon2995"/>
    <polygon fill="#ebebeb" points="181.36700439453125,333.39873218536377 181.36700439453125,286.15276050567627 181.16799926757812,286.20573902130127 130.59400939941406,272.54973316192627 127.36100769042969,236.3327989578247 102.7860107421875,236.3327989578247 81.7760009765625,236.3327989578247 88.13800048828125,307.6337480545044 181.1580047607422,333.4567461013794 " id="polygon2997"/>
    <polygon fill="#ffffff" points="237.12799072265625,213.62683582305908 231.85699462890625,272.5207414627075 181.2100067138672,286.1907548904419 181.2100067138672,333.43474292755127 274.30401611328125,307.6337480545044 274.98699951171875,299.9617509841919 285.6579895019531,180.41087818145752 286.7659912109375,168.21689319610596 294.9639892578125,76.30483341217041 181.2100067138672,76.30483341217041 181.2100067138672,121.71587085723877 245.197998046875,121.71587085723877 241.06600952148438,168.21689319610596 181.2100067138672,168.21689319610596 181.2100067138672,213.62683582305908 " id="polygon3005"/>
   </g>
  </g>
 </g>
</svg>