<svg width="128" height="128" xmlns="http://www.w3.org/2000/svg" xmlns:xlink="http://www.w3.org/1999/xlink">
 <metadata id="metadata2193">image/svg+xml</metadata>
 <defs>
  <linearGradient id="linearGradient2795">
   <stop stop-color="#b8b8b8" stop-opacity="0.498039" id="stop2797" offset="0"/>
   <stop stop-color="#7f7f7f" stop-opacity="0" id="stop2799" offset="1"/>
  </linearGradient>
  <linearGradient id="linearGradient4671">
   <stop stop-color="#ffd43b" id="stop4673" offset="0"/>
   <stop stop-color="#ffe873" id="stop4675" offset="1"/>
  </linearGradient>
  <linearGradient id="linearGradient4689">
   <stop stop-color="#5a9fd4" id="stop4691" offset="0"/>
   <stop stop-color="#306998" id="stop4693" offset="1"/>
  </linearGradient>
  <linearGradient xlink:href="#linearGradient4671" id="linearGradient1475" y2="0.449144" x2="0.234427" y1="0.822756" x1="0.5"/>
  <linearGradient xlink:href="#linearGradient4689" id="linearGradient1478" y2="0.641104" x2="0.74521" y1="0" x1="0"/>
  <radialGradient gradientTransform="matrix(2.382716e-8,-0.296405,1.43676,4.683673e-7,-128.544,150.5202)" gradientUnits="userSpaceOnUse" xlink:href="#linearGradient2795" id="radialGradient1480" fy="132.28575" fx="61.518883" r="29.036913" cy="132.28575" cx="61.518883"/>
 </defs>
 <g>
  <title>background</title>
  <rect fill="none" id="canvas_background" height="130" width="130" y="-1" x="-1"/>
 </g>
 <g>
  <title>Layer 1</title>
  <g id="g2303">
   <path fill="url(#linearGradient1478)" d="m60.51016,6.39797c-4.58366,0.0213 -8.96094,0.41222 -12.8125,1.09375c-11.34622,2.00451 -13.40625,6.2001 -13.40625,13.9375l0,10.21875l26.8125,0l0,3.40625l-26.8125,0l-10.0625,0c-7.79246,0 -14.61576,4.68372 -16.75,13.59375c-2.46182,10.21297 -2.57102,16.58603 0,27.25c1.90592,7.93785 6.45754,13.59375 14.25,13.59375l9.21875,0l0,-12.25c0,-8.8499 7.65714,-16.65624 16.75,-16.65625l26.78125,0c7.45495,0 13.40625,-6.13816 13.40625,-13.625l0,-25.53125c0,-7.26634 -6.12998,-12.72477 -13.40625,-13.9375c-4.60599,-0.76672 -9.3851,-1.11505 -13.96875,-1.09375zm-14.5,8.21875c2.76954,0 5.03125,2.29865 5.03125,5.125c-0.00001,2.81634 -2.26171,5.09375 -5.03125,5.09375c-2.77948,0 -5.03125,-2.27741 -5.03125,-5.09375c-0.00001,-2.82635 2.25177,-5.125 5.03125,-5.125z" id="path1948"/>
   <path fill="url(#linearGradient1475)" d="m91.22891,35.05422l0,11.90625c0,9.23076 -7.8259,17 -16.75,17l-26.78125,0c-7.33584,0 -13.40625,6.27849 -13.40625,13.625l0,25.53125c0,7.26634 6.31858,11.54032 13.40625,13.625c8.48733,2.49561 16.62623,2.94663 26.78125,0c6.75015,-1.95439 13.40625,-5.88761 13.40625,-13.625l0,-10.21875l-26.78125,0l0,-3.40625l26.78125,0l13.40625,0c7.79246,0 10.69625,-5.43541 13.40624,-13.59375c2.79933,-8.39888 2.68022,-16.47577 0,-27.25c-1.92578,-7.75744 -5.60387,-13.59375 -13.40624,-13.59375l-10.0625,0zm-15.0625,64.65625c2.77947,0.00001 5.03125,2.27742 5.03125,5.09375c-0.00001,2.82635 -2.25178,5.125 -5.03125,5.125c-2.76955,0 -5.03125,-2.29865 -5.03125,-5.125c0,-2.81633 2.26169,-5.09375 5.03125,-5.09375z" id="path1950"/>
   <path opacity="0.44382" fill="url(#radialGradient1480)" fill-rule="nonzero" stroke-width="20" stroke-miterlimit="4" d="m97.339111,134.097839a35.930974,6.967314 0 1 1 -71.861956,0a35.930974,6.967314 0 1 1 71.861956,0z" id="path1894"/>
  </g>
 </g>
</svg>